<?xml version="1.0" encoding="UTF-8"?>
<svg xmlns="http://www.w3.org/2000/svg" xmlns:xlink="http://www.w3.org/1999/xlink" width="48px" height="48px" viewBox="0 0 48 48" version="1.1">
<g id="surface1">
<path style=" stroke:none;fill-rule:evenodd;fill:rgb(0%,0%,0%);fill-opacity:1;" d="M 37.765625 28.929688 C 37.671875 29.546875 37.4375 30.136719 37.078125 30.648438 C 36.714844 31.164062 36.242188 31.585938 35.691406 31.882812 C 35.539062 31.964844 35.378906 32.039062 35.214844 32.09375 C 35.425781 34.875 31.007812 35.882812 28.628906 35.222656 L 29.511719 38.3125 L 27.238281 38.394531 L 23.261719 32.699219 C 21.917969 33.078125 20.335938 33.257812 19.3125 31.617188 C 19.21875 31.464844 19.132812 31.308594 19.058594 31.148438 C 18.796875 31.203125 18.535156 31.230469 18.269531 31.230469 C 17.511719 31.230469 16.246094 31.003906 15.605469 30.558594 C 15.097656 30.222656 14.691406 29.746094 14.441406 29.191406 C 13.074219 29.378906 11.914062 29.058594 11.15625 28.265625 C 10.195312 27.277344 9.921875 25.644531 10.421875 23.894531 C 11.082031 21.558594 13.089844 18.925781 17.074219 17.9375 C 17.421875 17.507812 17.835938 17.136719 18.300781 16.839844 C 20.804688 15.234375 24.867188 15.097656 27.953125 16.621094 C 29.148438 16.398438 30.382812 16.515625 31.515625 16.960938 C 33.734375 17.792969 35.34375 19.53125 35.648438 21.296875 C 36.25 21.609375 36.742188 22.09375 37.058594 22.691406 C 37.722656 23.9375 37.816406 25.191406 37.371094 26.199219 C 37.789062 27.042969 37.929688 28 37.765625 28.929688 Z M 36.128906 27.613281 C 35.777344 27.800781 35.382812 27.898438 34.984375 27.898438 C 34.582031 27.898438 34.191406 27.800781 33.835938 27.613281 L 34.023438 26.390625 C 34.800781 26.464844 35.433594 26.222656 35.765625 25.726562 C 36.136719 25.171875 36.078125 24.351562 35.609375 23.46875 C 35.082031 22.480469 33.949219 22.324219 33.320312 22.316406 L 33.277344 22.316406 C 31.703125 22.316406 30.097656 23.214844 29.445312 24.382812 L 28.5 23.933594 C 28.6875 23.328125 29.003906 22.773438 29.425781 22.308594 C 29.0625 21.996094 28.785156 21.597656 28.628906 21.144531 C 28.46875 20.695312 28.4375 20.210938 28.527344 19.742188 L 29.460938 19.65625 C 29.503906 20.035156 29.660156 20.390625 29.910156 20.679688 C 30.160156 20.96875 30.492188 21.171875 30.863281 21.269531 C 31.640625 20.921875 32.484375 20.75 33.335938 20.765625 C 33.457031 20.765625 33.570312 20.777344 33.691406 20.785156 C 33.085938 19.714844 32.128906 18.886719 30.984375 18.441406 C 28.183594 17.355469 26.296875 19.039062 25.863281 19.621094 C 24.824219 21.015625 25.492188 22.335938 26 23.191406 L 25.164062 23.949219 C 24.4375 23.320312 23.953125 22.460938 23.785156 21.515625 C 22.714844 21.835938 21.28125 21.769531 20.476562 20.398438 L 21.234375 19.878906 C 22.085938 20.515625 23.4375 20.457031 24.082031 19.671875 C 24.234375 19.324219 24.425781 18.996094 24.65625 18.695312 C 25.023438 18.214844 25.460938 17.792969 25.960938 17.453125 C 23.867188 16.878906 20.90625 16.972656 19.121094 18.121094 C 18.636719 18.402344 18.238281 18.808594 17.96875 19.296875 C 17.699219 19.789062 17.566406 20.339844 17.589844 20.898438 C 17.589844 21.800781 18.296875 23.226562 19.246094 23.449219 L 18.695312 24.523438 C 18.085938 24.382812 17.535156 24.0625 17.109375 23.605469 L 16.289062 24.652344 L 15.46875 24.253906 L 16.273438 22.152344 C 16.140625 21.742188 16.074219 21.316406 16.074219 20.886719 C 16.074219 20.546875 16.109375 20.210938 16.179688 19.878906 C 13.652344 20.921875 12.402344 22.65625 11.945312 24.242188 C 11.597656 25.460938 11.730469 26.5625 12.308594 27.15625 C 12.765625 27.625 13.464844 27.738281 14.125 27.695312 L 15.894531 26.316406 L 16.472656 26.808594 L 15.949219 28.53125 C 16.222656 29.40625 17.125 29.859375 18.769531 29.539062 C 18.855469 28.84375 19.132812 28.183594 19.566406 27.628906 C 19.886719 27.171875 20.308594 26.792969 20.800781 26.527344 L 21.664062 24.199219 L 22.527344 24.160156 L 22.433594 26.070312 C 23.886719 25.921875 25.511719 26.214844 27.023438 25.988281 L 27.300781 27 C 25.082031 28.023438 22.8125 26.351562 20.753906 28.558594 C 20.011719 29.351562 20.296875 30.039062 20.753906 30.734375 C 21.414062 31.726562 22.652344 31.132812 23.917969 30.734375 C 25.835938 30.148438 27.226562 29.726562 29.851562 29.9375 C 29.222656 28.75 29.285156 27.3125 30.125 25.730469 L 31.359375 26.21875 C 30.492188 28.214844 31.304688 29.375 31.863281 29.882812 C 32.730469 30.671875 34.035156 30.910156 34.894531 30.433594 C 35.226562 30.253906 35.507812 29.996094 35.726562 29.6875 C 35.941406 29.378906 36.082031 29.023438 36.140625 28.652344 C 36.195312 28.308594 36.191406 27.957031 36.125 27.613281 Z M 36.128906 27.613281 "/>
</g>
</svg>
