<?xml version="1.0" encoding="UTF-8"?>
<svg xmlns="http://www.w3.org/2000/svg" xmlns:xlink="http://www.w3.org/1999/xlink" width="32px" height="32px" viewBox="0 0 32 32" version="1.1">
<g id="surface1">
<path style=" stroke:none;fill-rule:nonzero;fill:rgb(0%,0%,0%);fill-opacity:1;" d="M 16 24.890625 C 14.527344 24.882812 13.339844 23.683594 13.34375 22.214844 C 13.351562 20.742188 14.542969 19.554688 16.015625 19.554688 C 17.488281 19.558594 18.679688 20.75 18.679688 22.222656 C 18.675781 23.699219 17.476562 24.890625 16 24.890625 Z M 16 24.890625 "/>
<path style=" stroke:none;fill-rule:nonzero;fill:rgb(0%,0%,0%);fill-opacity:1;" d="M 16 3.554688 C 22.871094 3.554688 28.445312 9.128906 28.445312 16 C 28.445312 22.871094 22.871094 28.445312 16 28.445312 C 9.128906 28.445312 3.554688 22.871094 3.554688 16 C 3.5625 9.128906 9.128906 3.5625 16 3.554688 M 16 0 C 7.164062 0 0 7.164062 0 16 C 0 24.835938 7.164062 32 16 32 C 24.835938 32 32 24.835938 32 16 C 32 7.164062 24.835938 0 16 0 Z M 16 0 "/>
<path style=" stroke:none;fill-rule:nonzero;fill:rgb(0%,0%,0%);fill-opacity:1;" d="M 17.777344 7.109375 L 14.222656 7.109375 C 13.675781 7.109375 13.15625 7.363281 12.820312 7.792969 C 12.484375 8.226562 12.363281 8.789062 12.496094 9.320312 L 14.277344 16.429688 C 14.472656 17.222656 15.183594 17.777344 16 17.777344 C 16.816406 17.777344 17.527344 17.222656 17.722656 16.429688 L 19.503906 9.320312 C 19.636719 8.789062 19.515625 8.226562 19.179688 7.792969 C 18.84375 7.363281 18.324219 7.109375 17.777344 7.109375 Z M 17.777344 10.667969 Z M 17.777344 10.667969 "/>
</g>
</svg>
