<?xml version="1.0" encoding="UTF-8"?>
<svg xmlns="http://www.w3.org/2000/svg" xmlns:xlink="http://www.w3.org/1999/xlink" width="32px" height="32px" viewBox="0 0 32 32" version="1.1">
<g id="surface1">
<path style=" stroke:none;fill-rule:evenodd;fill:rgb(0%,0%,0%);fill-opacity:1;" d="M 12 2 L 24 2 L 24 16 C 24 16.359375 23.804688 16.691406 23.492188 16.871094 C 23.179688 17.046875 22.796875 17.042969 22.484375 16.859375 L 18 14.164062 L 13.515625 16.859375 C 13.203125 17.046875 12.820312 17.050781 12.507812 16.871094 C 12.191406 16.695312 12 16.359375 12 16 Z M 12 2 "/>
<path style=" stroke:none;fill-rule:nonzero;fill:rgb(0%,0%,0%);fill-opacity:1;" d="M 6 0 L 26 0 C 28.210938 0 30 1.789062 30 4 L 30 28 C 30 30.210938 28.210938 32 26 32 L 6 32 C 3.789062 32 2 30.210938 2 28 L 2 26 L 4 26 L 4 28 C 4 29.105469 4.894531 30 6 30 L 26 30 C 27.105469 30 28 29.105469 28 28 L 28 4 C 28 2.894531 27.105469 2 26 2 L 6 2 C 4.894531 2 4 2.894531 4 4 L 4 6 L 2 6 L 2 4 C 2 1.789062 3.789062 0 6 0 Z M 6 0 "/>
<path style=" stroke:none;fill-rule:nonzero;fill:rgb(0%,0%,0%);fill-opacity:1;" d="M 2 10 L 2 9 C 2 8.449219 2.449219 8 3 8 C 3.550781 8 4 8.449219 4 9 L 4 10 L 5 10 C 5.550781 10 6 10.449219 6 11 C 6 11.550781 5.550781 12 5 12 L 1 12 C 0.449219 12 0 11.550781 0 11 C 0 10.449219 0.449219 10 1 10 Z M 2 16 L 2 15 C 2 14.449219 2.449219 14 3 14 C 3.550781 14 4 14.449219 4 15 L 4 16 L 5 16 C 5.550781 16 6 16.449219 6 17 C 6 17.550781 5.550781 18 5 18 L 1 18 C 0.449219 18 0 17.550781 0 17 C 0 16.449219 0.449219 16 1 16 Z M 2 22 L 2 21 C 2 20.449219 2.449219 20 3 20 C 3.550781 20 4 20.449219 4 21 L 4 22 L 5 22 C 5.550781 22 6 22.449219 6 23 C 6 23.550781 5.550781 24 5 24 L 1 24 C 0.449219 24 0 23.550781 0 23 C 0 22.449219 0.449219 22 1 22 Z M 2 22 "/>
</g>
</svg>
