<?xml version="1.0" standalone="no"?>
<!DOCTYPE svg PUBLIC "-//W3C//DTD SVG 20010904//EN"
 "http://www.w3.org/TR/2001/REC-SVG-20010904/DTD/svg10.dtd">
<svg version="1.0" xmlns="http://www.w3.org/2000/svg"
 width="300.000000pt" height="422.000000pt" viewBox="0 0 300.000000 422.000000"
 preserveAspectRatio="xMidYMid meet">
<metadata>
Created by potrace 1.10, written by Peter Selinger 2001-2011
</metadata>
<g transform="translate(0.000000,422.000000) scale(0.100000,-0.100000)"
fill="#000000" stroke="none">
<path d="M1538 3963 c-9 -2 -26 -23 -37 -47 -41 -83 -21 -245 50 -420 47 -115
56 -86 66 206 5 149 3 204 -7 227 -7 17 -16 31 -20 31 -5 0 -14 2 -22 4 -7 2
-21 2 -30 -1z m53 -30 c25 -29 15 -453 -10 -453 -23 0 -79 191 -88 300 -6 70
2 111 28 144 23 30 50 33 70 9z"/>
<path d="M1197 3902 c-33 -37 -21 -77 76 -245 84 -144 84 -144 152 -182 70
-40 75 -41 75 -20 0 28 -112 299 -152 367 -52 91 -113 122 -151 80z m53 -2 c0
-5 3 -9 8 -8 35 7 96 -88 157 -247 21 -55 42 -105 46 -110 5 -6 10 -25 13 -42
l6 -31 -47 25 c-27 14 -53 29 -59 34 -27 22 -184 309 -184 336 0 15 36 53 50
53 6 0 10 -4 10 -10z"/>
<path d="M1758 3873 c-28 -30 -41 -57 -62 -133 -42 -152 -51 -226 -38 -300
l11 -65 -5 65 c-9 136 59 400 113 435 23 15 26 15 44 -1 31 -28 33 -73 5 -173
-32 -116 -119 -311 -149 -332 -5 -4 -4 -9 2 -13 19 -12 130 224 162 345 23 89
21 144 -5 184 -22 34 -36 31 -78 -12z"/>
<path d="M2062 3680 c-46 -19 -116 -74 -183 -144 -107 -113 -117 -128 -143
-214 l-15 -53 22 7 c66 20 180 100 263 184 102 103 133 155 118 197 -10 31
-27 37 -62 23z m46 -42 c5 -39 -17 -73 -106 -164 -74 -76 -178 -153 -229 -169
-18 -5 -23 -2 -23 12 1 40 42 106 117 184 148 158 233 206 241 137z"/>
<path d="M953 3662 c-33 -10 -63 -39 -63 -61 0 -28 41 -53 213 -133 120 -56
165 -72 213 -75 34 -3 64 -2 67 3 3 5 -14 7 -37 6 -50 -4 -143 30 -316 116
-121 60 -137 77 -104 113 42 46 156 8 305 -102 37 -27 70 -49 73 -49 4 0 28
-16 53 -35 25 -19 48 -33 51 -30 7 7 -12 22 -145 110 -181 121 -256 154 -310
137z"/>
<path d="M1472 3418 c-50 -17 -118 -82 -138 -133 -50 -133 53 -265 206 -265
50 0 61 4 97 35 22 18 46 47 54 63 l14 30 70 -18 c96 -24 186 -80 270 -165 82
-84 129 -159 162 -258 28 -86 25 -109 -7 -47 -54 107 -98 138 -252 179 -43 12
-80 21 -84 21 -12 0 8 -74 32 -122 52 -103 140 -163 256 -174 34 -4 68 -11 75
-16 17 -13 8 -113 -23 -268 -39 -191 -36 -181 -44 -143 -4 18 -15 44 -24 58
-17 26 -91 69 -105 61 -10 -6 3 -97 18 -124 6 -11 33 -36 61 -56 30 -22 50
-44 50 -55 0 -37 11 -53 27 -40 10 9 19 9 38 -1 36 -19 31 -37 -12 -49 -54
-15 -58 -14 -32 9 21 18 19 18 -16 -2 l-40 -23 37 -3 c22 -2 56 5 81 16 34 15
45 16 54 7 7 -7 9 -16 5 -20 -4 -4 7 -4 23 0 24 5 27 4 13 -5 -10 -6 -24 -10
-30 -9 -7 1 -29 -5 -48 -13 -19 -9 -42 -18 -50 -22 -19 -8 29 -1 55 8 16 6 15
4 -3 -6 -12 -8 -20 -17 -16 -21 14 -14 -54 -29 -113 -24 -50 4 -81 -1 -153
-24 -129 -40 -238 -54 -298 -40 -42 11 -212 89 -212 98 0 2 67 88 95 121 2 2
25 -13 53 -32 68 -49 112 -66 174 -66 77 0 231 26 266 44 16 8 49 19 73 23
l44 8 -40 5 -40 5 29 16 c27 15 23 16 -78 11 -102 -4 -107 -4 -147 22 -26 18
-39 33 -35 42 5 14 -34 66 -84 111 -35 32 -85 46 -132 39 l-40 -7 7 33 c20 96
10 168 -23 168 -8 0 -24 8 -35 17 -11 11 -35 18 -59 18 -53 0 -92 -41 -86 -92
4 -30 2 -33 -23 -33 -80 0 -140 -138 -80 -183 12 -9 16 -28 16 -77 0 -51 6
-76 27 -116 l27 -52 -92 -64 c-181 -128 -270 -218 -351 -359 -61 -106 -94
-255 -112 -501 l-7 -98 32 0 c36 0 35 2 17 -65 -27 -103 -91 -190 -170 -231
-35 -18 -56 -35 -56 -46 0 -16 11 -18 82 -18 116 0 182 37 249 140 15 23 15
21 8 -40 -4 -36 -4 -69 0 -73 14 -14 76 -4 77 13 1 8 2 75 3 148 l1 134 33 -7
c17 -4 39 -8 48 -11 14 -4 17 12 23 111 11 185 53 313 135 415 42 53 72 80
206 191 55 45 119 101 143 123 l43 41 -8 -30 c-23 -84 0 -254 47 -345 28 -55
196 -222 291 -288 28 -19 23 -44 -14 -80 -18 -18 -44 -54 -58 -82 -37 -76 -53
-78 -145 -17 -71 47 -152 120 -212 191 -32 38 -96 144 -111 186 -7 19 -17 44
-21 55 -4 11 -13 39 -19 62 -6 22 -20 52 -31 65 -19 23 -19 23 -20 1 0 -28 53
-190 81 -245 54 -108 159 -226 279 -316 148 -110 142 -106 151 -91 4 8 15 23
23 34 15 20 17 19 56 -24 61 -65 73 -101 67 -196 -3 -44 -9 -88 -12 -97 -5
-14 -2 -18 13 -18 22 0 60 48 103 130 19 37 24 60 24 127 0 51 4 79 10 75 6
-3 27 -19 48 -35 21 -16 39 -28 40 -26 1 2 10 14 20 25 18 21 17 23 -95 114
-62 51 -117 97 -122 101 -5 5 -4 14 3 23 10 12 5 21 -31 53 -295 263 -314 288
-339 465 -9 64 -9 99 0 154 l12 71 85 11 c46 6 124 25 173 42 83 28 181 40
181 22 0 -14 -32 -39 -70 -55 -20 -8 -44 -26 -53 -41 -10 -14 -24 -26 -31 -26
-13 0 -67 -39 -55 -40 3 0 20 7 38 16 18 9 35 14 37 11 7 -7 -13 -44 -38 -69
-28 -28 -13 -36 17 -8 14 13 31 42 37 64 15 53 21 61 69 84 46 23 50 16 10
-22 -22 -21 -30 -39 -33 -78 -4 -41 -11 -55 -36 -74 -17 -14 -36 -41 -43 -62
-6 -20 -18 -45 -27 -55 -8 -9 -13 -20 -10 -23 8 -7 43 44 53 76 7 24 8 24 16
5 4 -11 5 -46 2 -77 -4 -35 -2 -58 4 -58 6 0 9 36 9 87 -1 78 1 89 21 109 13
13 23 31 23 41 0 15 2 16 10 3 6 -8 7 -34 4 -57 -4 -29 -3 -43 5 -43 6 0 10 3
9 7 -1 5 2 22 6 40 5 22 2 41 -8 62 -22 42 -20 53 14 96 29 37 30 37 30 12 0
-14 5 -38 12 -52 8 -19 8 -35 0 -63 -10 -33 -10 -35 3 -18 8 11 15 27 15 35 0
14 1 14 10 1 14 -22 12 -62 -5 -103 -8 -20 -15 -49 -15 -64 0 -15 -9 -41 -20
-58 -11 -16 -20 -39 -20 -50 0 -13 8 -4 21 23 25 50 39 42 39 -21 0 -23 4 -36
10 -32 13 8 13 55 -2 109 -8 30 -9 52 -2 66 9 20 12 18 36 -31 17 -33 27 -46
28 -34 0 11 -9 35 -20 52 -13 22 -19 49 -19 80 1 36 -7 63 -30 107 -42 80 -39
94 10 41 23 -25 48 -45 56 -45 18 0 33 -41 33 -89 0 -24 6 -44 17 -52 15 -13
16 -12 8 6 -5 11 -10 39 -13 63 -3 36 -2 41 12 36 29 -11 49 -66 54 -149 2
-44 11 -92 19 -107 17 -35 26 -36 13 -2 -6 14 -10 57 -10 95 0 65 1 69 19 60
10 -6 21 -21 25 -35 3 -13 13 -27 22 -30 39 -15 26 9 -43 78 -18 18 -33 37
-33 43 0 22 -44 65 -112 109 -39 25 -69 47 -67 48 2 2 26 1 52 -4 37 -5 55
-15 81 -43 21 -23 43 -37 57 -37 22 0 21 2 -8 16 -44 22 -49 41 -11 49 19 5
27 10 20 17 -6 6 -16 5 -29 -2 -15 -10 -25 -9 -51 4 -17 9 -46 16 -65 16 -41
0 -81 35 -57 50 8 6 20 10 27 10 6 0 22 13 35 29 13 16 40 36 62 45 26 11 36
20 33 31 -4 8 -2 17 4 20 5 4 7 10 4 15 -3 5 -1 11 5 15 15 9 12 25 -4 25 -8
0 -16 5 -18 12 -4 10 -13 10 -45 0 -53 -16 -71 -16 -55 0 7 7 12 16 12 20 0
11 -32 10 -50 -3 -11 -8 -8 -9 14 -4 25 5 28 4 18 -8 -7 -8 -8 -17 -4 -22 4
-4 -2 -3 -13 2 -11 6 -26 8 -32 6 -7 -3 -13 3 -13 12 0 29 39 93 96 157 68 77
112 160 126 242 7 38 20 72 35 90 34 41 45 72 37 112 -8 42 -24 43 -47 4 -35
-59 -57 -21 -27 47 14 31 15 42 6 34 -18 -15 -29 1 -21 32 6 21 6 21 -9 3 -13
-16 -14 -23 -3 -40 13 -22 12 -66 -2 -66 -4 0 -13 12 -19 26 -15 32 -29 24
-42 -27 -13 -49 -1 -95 35 -129 21 -20 23 -29 18 -69 -8 -55 -35 -120 -67
-158 -49 -60 -96 -125 -96 -134 0 -17 121 140 145 190 13 25 27 70 31 99 6 49
5 55 -21 82 -20 21 -29 42 -33 78 -2 27 0 52 5 55 14 9 63 -73 64 -108 l1 -30
12 35 c13 42 40 82 49 73 11 -10 -4 -56 -30 -91 -14 -19 -28 -57 -34 -93 -12
-78 -48 -149 -110 -221 -28 -32 -61 -77 -75 -100 -17 -28 -23 -34 -19 -18 3
14 7 32 7 40 0 8 11 56 24 107 48 188 52 301 18 465 -7 29 -7 29 99 125 102
92 133 190 118 366 -5 54 -13 64 -31 42 -7 -8 -9 -15 -6 -15 4 0 -2 -17 -13
-37 -51 -96 -171 -360 -171 -377 0 -25 113 200 152 302 17 45 35 85 39 88 5 3
9 -30 9 -73 0 -125 -26 -189 -119 -285 -83 -88 -89 -87 -90 2 -2 107 48 226
135 319 31 34 52 61 47 61 -14 0 -115 -108 -141 -152 -34 -55 -54 -135 -56
-215 0 -40 -2 -73 -3 -73 -2 0 -12 19 -24 43 -84 166 -275 314 -430 332 l-56
7 -39 -46 c-66 -79 -129 -93 -220 -50 -52 25 -81 60 -94 116 -10 41 -9 52 10
94 26 60 45 81 92 105 49 25 84 24 133 -4 51 -29 94 -91 110 -159 12 -50 13
-51 20 -25 11 42 -9 98 -55 149 -59 68 -127 95 -188 76z m499 -609 c35 -12 80
-30 101 -40 48 -25 134 -132 143 -180 4 -18 0 -19 -48 -13 -90 12 -151 40
-202 95 -65 69 -102 159 -66 159 4 0 37 -9 72 -21z m-425 -404 c18 -15 17 -15
-21 -13 -37 3 -40 1 -37 -22 1 -13 -2 -37 -8 -53 -8 -24 -7 -27 4 -18 8 7 17
28 21 47 6 35 7 36 46 32 22 -2 39 1 39 7 1 13 30 -25 30 -39 0 -5 -7 -1 -16
10 -15 19 -16 19 -8 -1 15 -40 16 -85 3 -101 -30 -36 -129 11 -155 72 -18 44
-18 50 6 74 24 24 69 26 96 5z m-169 -133 c-10 -10 -17 -31 -17 -47 0 -16 7
-37 17 -47 15 -17 15 -18 -6 -18 -19 0 -41 31 -41 58 0 15 41 72 51 72 8 0 6
-7 -4 -18z m56 -31 c-2 -37 -25 -67 -42 -56 -14 8 -5 43 17 68 15 16 14 17 -1
12 -9 -4 -19 -16 -23 -27 -3 -11 -8 -17 -11 -14 -11 11 28 57 45 54 12 -2 16
-12 15 -37z m57 14 c9 -11 9 -15 1 -15 -7 0 -10 -3 -8 -7 6 -10 -12 -58 -18
-51 -3 2 -1 19 4 36 6 20 6 32 0 32 -5 0 -9 5 -9 10 0 15 16 12 30 -5z m110
-64 c0 -25 3 -32 9 -22 7 11 11 5 16 -22 13 -66 -14 -74 -91 -26 -61 39 -59
36 -47 51 6 7 13 24 16 38 6 23 10 25 52 22 44 -4 45 -4 45 -41z m525 -7 c10
-15 19 -45 20 -65 2 -34 0 -37 -15 -29 -22 12 -69 67 -72 83 0 7 -2 24 -3 39
-2 26 -1 27 25 13 15 -8 35 -26 45 -41z m-784 -28 c14 -9 17 -16 9 -21 -21
-13 -40 16 -38 59 1 36 2 37 5 9 2 -18 13 -39 24 -47z m382 20 c18 -7 52 -35
77 -60 l45 -47 -35 -29 c-39 -32 -49 -29 -82 25 -10 17 -18 23 -18 15 0 -8 9
-29 19 -47 19 -30 19 -34 4 -75 -9 -24 -18 -45 -19 -47 -7 -8 -129 75 -162
111 -20 22 -46 45 -57 50 -11 6 -3 -8 18 -30 l39 -40 -58 -76 c-66 -88 -67
-88 -119 16 -45 91 -47 138 -6 179 43 42 91 40 142 -6 76 -68 125 -59 123 24
-2 50 -1 51 27 51 17 0 44 -6 62 -14z m211 -202 c14 -3 54 -4 90 -2 72 3 79
-5 27 -34 -21 -12 -70 -21 -144 -28 -110 -9 -112 -9 -135 13 -20 20 -21 27
-12 48 6 13 28 34 48 45 l37 22 33 -29 c18 -16 43 -31 56 -35z m425 22 c10
-12 8 -17 -11 -27 -33 -18 -76 -18 -83 -1 -7 18 -8 17 30 30 41 14 51 14 64
-2z m-944 -156 c12 -13 23 -17 33 -11 10 6 29 0 59 -19 38 -24 106 -55 166
-74 9 -3 17 -9 17 -14 0 -17 -123 -130 -235 -216 -60 -46 -129 -104 -152 -128
-87 -91 -141 -231 -162 -420 -6 -54 -11 -102 -11 -108 0 -16 -83 -12 -125 6
-21 8 -47 13 -58 10 -13 -3 -26 2 -34 12 -11 15 -14 15 -23 2 -18 -26 -34 17
-31 85 3 92 29 274 47 335 31 108 134 273 215 345 63 55 135 112 180 141 24
16 52 39 62 52 23 27 29 27 52 2z m760 -983 c55 -44 101 -83 103 -87 2 -5 -2
-11 -8 -15 -6 -4 -35 12 -65 34 -73 55 -90 62 -79 30 5 -13 9 -67 9 -119 -1
-87 -3 -100 -33 -157 -32 -62 -61 -86 -48 -40 4 12 9 54 13 94 7 81 -10 129
-71 199 l-34 39 45 58 c28 35 49 55 56 50 7 -4 57 -43 112 -86z m-1145 -32 c3
-2 4 -64 2 -139 -2 -109 -6 -136 -17 -136 -11 0 -15 20 -17 85 l-3 85 -47 -65
c-28 -37 -68 -78 -95 -95 -41 -26 -56 -30 -117 -30 l-71 0 51 24 c28 13 68 39
89 57 41 37 92 131 102 192 l6 38 56 -7 c31 -3 58 -8 61 -9z"/>
<path d="M1898 2803 c21 -39 106 -105 187 -145 44 -22 88 -46 98 -55 9 -9 20
-14 23 -11 8 9 -54 52 -131 91 -38 19 -97 59 -129 88 -32 29 -54 44 -48 32z"/>
<path d="M1540 2363 c0 -2 7 -14 15 -27 15 -22 14 -24 -5 -29 -28 -7 -25 -25
4 -33 32 -8 46 2 46 31 0 17 -4 23 -14 19 -8 -3 -16 3 -19 15 -3 11 0 22 7 25
6 2 1 3 -11 3 -13 -1 -23 -3 -23 -4z"/>
<path d="M2074 2195 c26 -44 66 -92 66 -78 0 6 -16 31 -36 55 -47 56 -51 59
-30 23z"/>
<path d="M792 3364 c-24 -16 -28 -44 -12 -74 16 -30 101 -43 252 -38 l136 4
87 43 c47 23 85 44 83 47 -11 10 -280 34 -393 34 -102 0 -135 -3 -153 -16z
m418 -9 c83 -9 89 -13 54 -36 -70 -44 -132 -56 -274 -55 -150 2 -193 14 -198
56 -7 47 17 52 198 46 91 -3 190 -8 220 -11z"/>
<path d="M1965 3319 c-141 -48 -205 -83 -205 -113 0 -5 15 4 33 21 23 22 70
44 171 78 157 53 194 58 233 28 85 -63 -27 -122 -282 -149 -90 -9 -82 -18 10
-11 149 11 285 54 325 102 11 13 9 20 -11 41 -30 32 -71 54 -101 54 -13 0 -90
-23 -173 -51z"/>
<path d="M1245 3233 c-304 -66 -455 -131 -455 -193 0 -25 35 -57 70 -65 29 -6
150 30 220 65 42 22 196 153 210 180 11 21 2 24 -45 13z m9 -21 c4 -7 -12 -23
-114 -112 -45 -39 -89 -63 -169 -89 -82 -27 -114 -26 -145 2 -39 35 -21 61 68
103 72 33 111 45 261 84 82 22 92 23 99 12z"/>
<path d="M1274 3102 c-83 -56 -184 -182 -249 -311 -30 -60 -36 -82 -32 -114 3
-21 8 -41 10 -44 10 -9 87 20 105 41 26 28 146 204 165 241 17 35 58 215 48
215 -3 0 -24 -12 -47 -28z m11 -102 c-19 -78 -64 -160 -143 -258 -77 -97 -125
-116 -130 -50 -6 65 81 210 205 343 15 17 39 38 53 47 34 21 37 6 15 -82z"/>
<path d="M1702 3078 c-17 -11 -30 -24 -27 -28 12 -20 308 -100 321 -87 2 2
-52 18 -121 35 -70 17 -138 38 -152 48 l-26 17 26 14 c26 13 35 24 20 22 -5 0
-23 -10 -41 -21z"/>
<path d="M2010 3096 c0 -2 28 -14 63 -25 35 -12 73 -28 85 -37 26 -18 29 -59
5 -73 -16 -9 -16 -10 3 -11 29 0 41 55 18 81 -18 21 -174 79 -174 65z"/>
<path d="M1366 3026 c-9 -19 -16 -40 -16 -48 0 -7 -18 -78 -40 -158 -22 -80
-43 -178 -47 -218 -5 -67 -4 -75 17 -97 49 -52 93 -21 121 85 27 98 29 283 5
389 -9 41 -18 76 -20 78 -2 2 -11 -12 -20 -31z m38 -211 c1 -162 -12 -247 -47
-302 -11 -18 -52 -16 -67 2 -18 22 -13 130 11 220 11 44 29 113 40 153 10 40
24 82 30 95 12 22 13 22 22 -8 5 -16 10 -88 11 -160z"/>
<path d="M1496 2984 c-11 -30 -5 -140 13 -224 21 -99 77 -257 99 -282 19 -22
51 -23 80 -2 28 19 29 73 3 170 -41 152 -106 290 -154 327 -30 22 -36 24 -41
11z m47 -36 c54 -50 166 -352 154 -414 -8 -41 -19 -54 -48 -54 -23 0 -32 7
-47 38 -19 36 -51 127 -53 147 0 6 -4 15 -9 20 -10 12 -40 177 -40 222 0 30 8
63 16 63 1 0 14 -10 27 -22z"/>
<path d="M1588 2984 c24 -44 175 -215 253 -285 132 -119 126 -105 -16 36 -129
128 -223 240 -212 251 3 3 27 1 54 -5 26 -7 53 -13 59 -14 12 -3 79 -52 103
-75 7 -7 16 -11 18 -8 8 8 -60 65 -105 87 -23 11 -70 23 -103 26 -58 6 -61 5
-51 -13z"/>
<path d="M2230 1904 c-30 -13 -47 -24 -37 -24 23 0 83 25 91 39 4 6 6 10 4 10
-2 -1 -28 -12 -58 -25z"/>
</g>
</svg>
