<?xml version="1.0" encoding="UTF-8"?>
<svg xmlns="http://www.w3.org/2000/svg" xmlns:xlink="http://www.w3.org/1999/xlink" width="32px" height="32px" viewBox="0 0 32 32" version="1.1">
<g id="surface1">
<path style=" stroke:none;fill-rule:evenodd;fill:rgb(0%,0%,0%);fill-opacity:1;" d="M 19.734375 22.398438 C 20.027344 22.398438 20.265625 22.640625 20.265625 22.933594 C 20.265625 23.226562 20.027344 23.464844 19.734375 23.464844 L 12.265625 23.464844 C 11.972656 23.464844 11.734375 23.226562 11.734375 22.933594 C 11.734375 22.640625 11.972656 22.398438 12.265625 22.398438 Z M 22.933594 20.265625 L 12.265625 20.265625 C 11.972656 20.265625 11.734375 20.027344 11.734375 19.734375 C 11.734375 19.4375 11.972656 19.199219 12.265625 19.199219 L 22.933594 19.199219 C 23.226562 19.199219 23.464844 19.4375 23.464844 19.734375 C 23.464844 20.027344 23.226562 20.265625 22.933594 20.265625 Z M 24 17.066406 L 12.265625 17.066406 C 11.972656 17.066406 11.734375 16.828125 11.734375 16.535156 C 11.734375 16.238281 11.972656 16 12.265625 16 L 24 16 C 24.296875 16 24.535156 16.238281 24.535156 16.535156 C 24.535156 16.828125 24.296875 17.066406 24 17.066406 Z M 11.734375 13.332031 C 11.734375 13.039062 11.972656 12.800781 12.265625 12.800781 L 21.867188 12.800781 C 22.160156 12.800781 22.398438 13.039062 22.398438 13.332031 C 22.398438 13.628906 22.160156 13.867188 21.867188 13.867188 L 12.265625 13.867188 C 11.972656 13.867188 11.734375 13.628906 11.734375 13.332031 Z M 11.734375 10.132812 C 11.734375 9.839844 11.972656 9.601562 12.265625 9.601562 L 22.933594 9.601562 C 23.226562 9.601562 23.464844 9.839844 23.464844 10.132812 C 23.464844 10.425781 23.226562 10.667969 22.933594 10.667969 L 12.265625 10.667969 C 11.972656 10.667969 11.734375 10.425781 11.734375 10.132812 Z M 9.601562 22.933594 C 9.601562 23.226562 9.359375 23.464844 9.066406 23.464844 L 8 23.464844 C 7.707031 23.464844 7.464844 23.226562 7.464844 22.933594 C 7.464844 22.640625 7.707031 22.398438 8 22.398438 L 9.066406 22.398438 C 9.359375 22.398438 9.601562 22.640625 9.601562 22.933594 Z M 9.601562 19.734375 C 9.601562 20.027344 9.359375 20.265625 9.066406 20.265625 L 8 20.265625 C 7.707031 20.265625 7.464844 20.027344 7.464844 19.734375 C 7.464844 19.4375 7.707031 19.199219 8 19.199219 L 9.066406 19.199219 C 9.359375 19.199219 9.601562 19.4375 9.601562 19.734375 Z M 9.601562 16.535156 C 9.601562 16.828125 9.359375 17.066406 9.066406 17.066406 L 8 17.066406 C 7.707031 17.066406 7.464844 16.828125 7.464844 16.535156 C 7.464844 16.238281 7.707031 16 8 16 L 9.066406 16 C 9.359375 16 9.601562 16.238281 9.601562 16.535156 Z M 9.601562 13.332031 C 9.601562 13.628906 9.359375 13.867188 9.066406 13.867188 L 8 13.867188 C 7.707031 13.867188 7.464844 13.628906 7.464844 13.332031 C 7.464844 13.039062 7.707031 12.800781 8 12.800781 L 9.066406 12.800781 C 9.359375 12.800781 9.601562 13.039062 9.601562 13.332031 Z M 9.601562 10.132812 C 9.601562 10.425781 9.359375 10.667969 9.066406 10.667969 L 8 10.667969 C 7.707031 10.667969 7.464844 10.425781 7.464844 10.132812 C 7.464844 9.839844 7.707031 9.601562 8 9.601562 L 9.066406 9.601562 C 9.359375 9.601562 9.601562 9.839844 9.601562 10.132812 Z M 9.601562 2.667969 C 9.601562 2.371094 9.839844 2.132812 10.132812 2.132812 L 11.199219 2.132812 C 11.496094 2.132812 11.734375 2.371094 11.734375 2.667969 C 11.734375 2.960938 11.496094 3.199219 11.199219 3.199219 L 10.132812 3.199219 C 9.839844 3.199219 9.601562 2.960938 9.601562 2.667969 Z M 14.933594 2.667969 C 14.933594 2.371094 15.171875 2.132812 15.464844 2.132812 L 16.535156 2.132812 C 16.828125 2.132812 17.066406 2.371094 17.066406 2.667969 C 17.066406 2.960938 16.828125 3.199219 16.535156 3.199219 L 15.464844 3.199219 C 15.171875 3.199219 14.933594 2.960938 14.933594 2.667969 Z M 20.265625 2.667969 C 20.265625 2.371094 20.503906 2.132812 20.800781 2.132812 L 21.867188 2.132812 C 22.160156 2.132812 22.398438 2.371094 22.398438 2.667969 C 22.398438 2.960938 22.160156 3.199219 21.867188 3.199219 L 20.800781 3.199219 C 20.503906 3.199219 20.265625 2.960938 20.265625 2.667969 Z M 8 4.265625 C 8.292969 4.265625 8.535156 4.507812 8.535156 4.800781 C 8.535156 5.09375 8.292969 5.332031 8 5.332031 C 7.707031 5.332031 7.464844 5.09375 7.464844 4.800781 C 7.464844 4.507812 7.707031 4.265625 8 4.265625 Z M 6.398438 4.800781 C 6.398438 5.683594 7.117188 6.398438 8 6.398438 C 8.882812 6.398438 9.601562 5.683594 9.601562 4.800781 C 9.601562 4.105469 9.152344 3.519531 8.535156 3.296875 L 8.535156 0.535156 C 8.535156 0.238281 8.292969 0 8 0 C 7.707031 0 7.464844 0.238281 7.464844 0.535156 L 7.464844 3.296875 C 6.847656 3.519531 6.398438 4.105469 6.398438 4.800781 Z M 24 4.265625 C 24.292969 4.265625 24.535156 4.507812 24.535156 4.800781 C 24.535156 5.09375 24.292969 5.332031 24 5.332031 C 23.707031 5.332031 23.464844 5.09375 23.464844 4.800781 C 23.464844 4.507812 23.707031 4.265625 24 4.265625 Z M 22.398438 4.800781 C 22.398438 5.683594 23.117188 6.398438 24 6.398438 C 24.882812 6.398438 25.601562 5.683594 25.601562 4.800781 C 25.601562 4.105469 25.152344 3.519531 24.535156 3.296875 L 24.535156 0.535156 C 24.535156 0.238281 24.296875 0 24 0 C 23.703125 0 23.464844 0.238281 23.464844 0.535156 L 23.464844 3.296875 C 22.847656 3.519531 22.398438 4.105469 22.398438 4.800781 Z M 18.667969 4.265625 C 18.960938 4.265625 19.199219 4.507812 19.199219 4.800781 C 19.199219 5.09375 18.960938 5.332031 18.667969 5.332031 C 18.371094 5.332031 18.132812 5.09375 18.132812 4.800781 C 18.132812 4.507812 18.371094 4.265625 18.667969 4.265625 Z M 17.066406 4.800781 C 17.066406 5.683594 17.785156 6.398438 18.667969 6.398438 C 19.546875 6.398438 20.265625 5.683594 20.265625 4.800781 C 20.265625 4.105469 19.820312 3.519531 19.199219 3.296875 L 19.199219 0.535156 C 19.199219 0.238281 18.960938 0 18.667969 0 C 18.371094 0 18.132812 0.238281 18.132812 0.535156 L 18.132812 3.296875 C 17.515625 3.519531 17.066406 4.105469 17.066406 4.800781 Z M 13.332031 4.265625 C 13.628906 4.265625 13.867188 4.507812 13.867188 4.800781 C 13.867188 5.09375 13.628906 5.332031 13.332031 5.332031 C 13.039062 5.332031 12.800781 5.09375 12.800781 4.800781 C 12.800781 4.507812 13.039062 4.265625 13.332031 4.265625 Z M 11.734375 4.800781 C 11.734375 5.683594 12.453125 6.398438 13.332031 6.398438 C 14.214844 6.398438 14.933594 5.683594 14.933594 4.800781 C 14.933594 4.105469 14.488281 3.519531 13.867188 3.296875 L 13.867188 0.535156 C 13.867188 0.238281 13.628906 0 13.332031 0 C 13.039062 0 12.800781 0.238281 12.800781 0.535156 L 12.800781 3.296875 C 12.179688 3.519531 11.734375 4.105469 11.734375 4.800781 Z M 27.199219 30.933594 L 4.800781 30.933594 C 4.203125 30.933594 3.582031 30.445312 3.324219 29.867188 L 28.675781 29.867188 C 28.417969 30.445312 27.796875 30.933594 27.199219 30.933594 Z M 3.199219 28.800781 L 28.800781 28.800781 L 28.800781 27.734375 L 3.199219 27.734375 Z M 27.199219 2.132812 L 26.132812 2.132812 C 25.839844 2.132812 25.601562 2.371094 25.601562 2.667969 C 25.601562 2.960938 25.839844 3.199219 26.132812 3.199219 L 27.199219 3.199219 C 27.976562 3.199219 28.800781 4.023438 28.800781 4.800781 L 28.800781 26.667969 L 3.199219 26.667969 L 3.199219 4.800781 C 3.199219 4.023438 4.023438 3.199219 4.800781 3.199219 L 5.867188 3.199219 C 6.160156 3.199219 6.398438 2.960938 6.398438 2.667969 C 6.398438 2.371094 6.160156 2.132812 5.867188 2.132812 L 4.800781 2.132812 C 3.429688 2.132812 2.132812 3.429688 2.132812 4.800781 L 2.132812 29.332031 C 2.132812 30.703125 3.429688 32 4.800781 32 L 27.199219 32 C 28.570312 32 29.867188 30.703125 29.867188 29.332031 L 29.867188 4.800781 C 29.867188 3.429688 28.570312 2.132812 27.199219 2.132812 Z M 27.199219 2.132812 "/>
</g>
</svg>
