<svg id="canvas" height="auto" xmlns="http://www.w3.org/2000/svg" version="1.1" xmlns:xlink="http://www.w3.org/1999/xlink" viewBox="0 0 900 512" width="auto" style="width: auto; height: auto;"><defs><linearGradient gradientTransform="matrix(6.123233995736766e-17,1,-1,6.123233995736766e-17,0,0)"><stop stop-color="#e03a3a" offset="0"/><stop stop-color="hsv(60, 74%, 88%)" offset="1"/></linearGradient><linearGradient gradientTransform="matrix(6.123233995736766e-17,1,-1,6.123233995736766e-17,0,0)" id="SvgjsLinearGradient1008"><stop stop-color="#401111" offset="0"/><stop stop-color="hsv(60, 74%, 25%)" offset="1"/></linearGradient><linearGradient gradientTransform="matrix(6.123233995736766e-17,1,-1,6.123233995736766e-17,0,0)"><stop stop-color="#611919" offset="0"/><stop stop-color="hsv(60, 74%, 38%)" offset="1"/></linearGradient><linearGradient gradientTransform="matrix(6.123233995736766e-17,1,-1,6.123233995736766e-17,0,0)" id="SvgjsLinearGradient1007"><stop stop-color="#bf3232" offset="0"/><stop stop-color="hsv(60, 74%, 75%)" offset="1"/></linearGradient><linearGradient gradientTransform="matrix(6.123233995736766e-17,1,-1,6.123233995736766e-17,0,0)"><stop stop-color="#ff4242" offset="0"/><stop stop-color="hsv(60, 74%, 100%)" offset="1"/></linearGradient><linearGradient gradientTransform="matrix(6.123233995736766e-17,1,-1,6.123233995736766e-17,0,0)"><stop stop-color="#a12a2a" offset="0"/><stop stop-color="hsv(60, 74%, 63%)" offset="1"/></linearGradient><linearGradient gradientTransform="matrix(6.123233995736766e-17,1,-1,6.123233995736766e-17,0,0)"><stop stop-color="#802121" offset="0"/><stop stop-color="hsv(60, 74%, 50%)" offset="1"/></linearGradient></defs><rect width="900" height="512" fill="#00000000"/><path d="M1089.9942857168046 422.15212819426756C1038.842150249158 465.9201271720518 958.9619635401289 494.09383251347356 889.2946435423327 497.24686890078056C819.6273235445365 500.39990528808755 726.4496618139178 480.718824585882 671.9903657300273 441.07034651810955C617.5310696461368 401.4218684503371 584.8534213991751 327.2711664870159 562.5388670389897 259.3560004941461C540.2243126788043 191.4408345012763 517.440857021062 99.93337281660246 538.1030395689149 33.57935056089076C558.7652221167677 -32.77467169482094 627.2545311530968 -95.21766596954566 686.5119623261069 -138.7681330401242C745.7693934991171 -182.31860011070276 831.6452191812282 -225.4284634321736 893.6476266069759 -227.72345186258053C955.6500340327236 -230.01844029298746 1009.0783363638172 -192.129518414288 1058.5264068805927 -152.53806362256574C1107.9744773973684 -112.9466088308435 1167.3892081296926 -54.704212888353936 1190.3360497076292 9.825276887752892C1213.2828912855657 74.35476666385972 1212.931083680016 165.917733149656 1196.207456348212 234.6388750340751C1179.4838290164078 303.36001691849424 1141.1464211844511 378.3841292164833 1089.9942857168046 422.15212819426756C1038.842150249158 465.9201271720518 958.9619635401289 494.09383251347356 889.2946435423327 497.24686890078056 " fill="url(#SvgjsLinearGradient1007)" stroke="none" opacity="0.5"/><path d="M206.6519033519849 794.0357559280178C174.44184707204573 819.0179952389675 151.60290682735928 853.8137421996247 112.7740434492207 864.2997465229577C73.94518007108212 874.7857508462906 14.400190265776587 870.7228536856696 -26.32127691684667 856.9517818680156C-67.04274409946993 843.1807100503615 -98.87243159268982 812.5919426831255 -131.5547596465188 781.6733156170335C-164.23708770034776 750.7546885509415 -207.48620896093513 721.2409526476031 -222.41524523982054 671.4400194714634C-237.34428151870594 621.6390862953238 -220.5405974907484 535.0375780146227 -221.12897731983122 482.8677165601957C-221.71735714891403 430.69785510576867 -241.73598244547816 391.9011865723443 -225.9455242143174 358.4208507449013C-210.15506598315665 324.94051491745836 -161.07262224845093 310.65791633398317 -126.38622793286677 281.9857015955377C-91.69983361728262 253.3134868570922 -54.59920142864701 203.67282296941815 -17.827158320812515 186.38756231422832C18.944884787021977 169.1023016590385 53.56633973203088 178.6837642007362 94.24603071414009 178.27413766439872C134.9257216962493 177.86451112806125 189.0060436967692 167.20039245627098 226.25098757184287 183.9298030962035C263.49593144691653 200.65921373613602 286.68161943005873 247.562337761758 317.7156939645822 278.6506015039938C348.7497684991057 309.7388652462297 390.38739642010296 330.52086469000255 412.45543477898366 370.4593855496187C434.52347313786436 410.3979064092348 445.0215986683114 470.64479968388736 450.1239241178664 518.2817266616903C455.2262495674214 565.9186536394934 467.0843113078155 623.5935167505083 443.06938747631375 656.2809474164367C419.054463644812 688.9683780823648 345.43729514957727 691.4471759053295 306.0343811288558 714.4063106572596C266.6314671081343 737.3654454091898 238.8619596319241 769.0535166170681 206.6519033519849 794.0357559280178C174.44184707204573 819.0179952389675 151.60290682735928 853.8137421996247 112.7740434492207 864.2997465229577 " fill="url(#SvgjsLinearGradient1008)" stroke="none" opacity="0.5"/><path d="M621.4218555962071 433.3749623284747C585.5233809319113 474.5956349306641 558.9618312449047 534.9147057894542 508.60895754759025 550.77414818611C458.2560838502758 566.6335905827658 371.7455427779716 566.7402152212401 319.3046134123204 528.5316167084094C266.8636840466692 490.3230181955787 225.5141053762281 382.5927078062575 193.96338135368308 321.5225571091257C162.41265733113806 260.45240641199405 130.11099750884802 214.4575287000848 130.0002692770504 162.11071252561888C129.88954104525277 109.76389635115297 163.94887543538437 56.256069052630124 193.29901196289734 7.441660062330385C222.6491484904103 -41.372748927969354 257.5895070237635 -103.61578917275818 306.10108844212834 -130.77574141617956C354.6126698604932 -157.93569365960093 425.1265792015905 -155.5664314655928 484.3685004730866 -155.51805339819785C543.6104217445827 -155.4696753308029 623.5332487237915 -156.33409104397433 661.5526160711048 -130.48547301180983C699.571983418418 -104.63685497964534 692.4910698316121 -46.80646801970701 712.4847045569659 -0.4263452052108505C732.4783392823197 45.95377760928531 779.5952409271611 97.14918757880301 781.5144244232276 147.79526387516708C783.4336079192942 198.44134017153115 750.6819003378687 255.85349616408902 723.9998055333652 303.4501125729736C697.3177107288618 351.0467289818582 657.3203302605029 392.15428972628524 621.4218555962071 433.3749623284747C585.5233809319113 474.5956349306641 558.9618312449047 534.9147057894542 508.60895754759025 550.77414818611 " fill="url(#SvgjsLinearGradient1007)" stroke="none" opacity="0.5"/></svg>