<svg id="canvas" height="auto" xmlns="http://www.w3.org/2000/svg" version="1.1" xmlns:xlink="http://www.w3.org/1999/xlink" viewBox="0 0 900 512" width="auto" style="width: auto; height: auto;"><rect width="900" height="512" fill="#00000000"/><path d="M162.2554775422525 360.2125125688261C116.27988192862722 369.43497773492766 45.14279691021471 325.85429653457004 -5.5357443860241915 318.54679772916484C-56.214285682263096 311.23929892375963 -102.82312597555426 336.26333914319355 -141.81577023518108 316.367519736395C-180.80841449480792 296.4717003295965 -207.22964220790098 233.84472089287442 -239.4916099437852 199.17188128837358C-271.75357767966943 164.49904168387275 -317.07146163148866 147.82094419338682 -335.3875766504863 108.33048210938983C-353.703691669484 68.84002002539285 -349.2099483357774 7.689912636203076 -349.3883000577713 -37.7708912156084C-349.56665177976515 -83.23169506741988 -353.9347621717764 -128.79087762325005 -336.4576869824496 -164.43434100147897C-318.9806117931228 -200.07780437970789 -274.4090383410152 -221.78030314756765 -244.52584892181056 -251.63167148498187C-214.6426595026059 -281.4830398223961 -199.46352757920707 -328.46049196939515 -157.15855046722174 -343.5425510259643C-114.85357335523642 -358.6246100825335 -42.09957285747868 -342.62761027738327 9.304013750101433 -342.1240258243967C60.70760035768154 -341.62044137141015 117.34320419316816 -356.28169059665765 151.2629691782588 -340.5210443080448C185.18273416334944 -324.76039801943193 186.77586593281512 -278.6414811564528 212.8226036606452 -247.56014809271943C238.86934138847528 -216.47881502898605 296.28353119262647 -188.9731461033975 307.5433955452395 -154.03304592564447C318.8032598978525 -119.09294574789143 285.8320967328318 -78.37289045444703 280.3817897763231 -37.919547026201144C274.9314828198144 2.533796402044743 276.5188805529534 38.49842235070463 274.84155380618745 88.68701464383076C273.1642270594215 138.8756069369569 289.0821753397166 217.9577570783897 270.3178292957275 263.21200673255555C251.55348325173838 308.4662563867214 208.23107315587777 350.9900474027246 162.2554775422525 360.2125125688261C116.27988192862722 369.43497773492766 45.14279691021471 325.85429653457004 -5.5357443860241915 318.54679772916484 " fill="url(#SvgjsLinearGradient1015)"/><defs><linearGradient gradientTransform="matrix(1,0,0,1,0,0)" id="SvgjsLinearGradient1015"><stop stop-color="#e71989ff" offset="0"/><stop stop-color="#e77719ff" offset="1"/></linearGradient><linearGradient gradientTransform="matrix(1,0,0,1,0,0)" id="SvgjsLinearGradient1016"><stop stop-color="#e71989ff" offset="0"/><stop stop-color="#e77719ff" offset="1"/></linearGradient></defs><path d="M1023.535257861333 928.2480098783521C980.6875275756847 935.3483247298378 908.9173841023662 884.6645575809031 861.2675325602399 875.7047257310655C813.6176810181137 866.744893881228 773.9230576868651 887.3343589716237 737.6361486085754 874.4890187793267C701.3492395302857 861.6436785870296 672.6552253623664 827.208887516083 643.5460780905016 798.6326845772829C614.4369308186368 770.0564816384829 578.5140873221293 735.6479942578965 562.9812649773867 703.0318011465265C547.448442632644 670.4156080351567 550.038678025257 641.9403828550292 550.3491440220457 602.9355259090637C550.6596100188344 563.930668963098 547.5364278804814 508.00126964959503 564.8440609581186 469.002659470733C582.1516940357558 430.004049291871 624.1156300249621 400.69574668245195 654.1949424878691 368.94386483589165C684.2742549507761 337.19198298933134 703.2080397907812 295.2272906992547 745.3199357355605 278.4913683913712C787.4318316803399 261.75544608348775 856.428373797158 268.1077437348682 906.866318156545 268.5283309885908C957.3042625159324 268.9489182423134 1010.7341717432582 263.4388934566526 1047.9476018918838 281.01489191370666C1085.1610320405093 298.59089037076075 1100.797647960771 341.9837998384953 1130.146899048298 373.98432173091544C1159.4961501358252 405.98484362333545 1202.7050771445206 431.1032024587172 1224.0431084170461 473.018023268227C1245.3811396895717 514.932844077737 1253.0341038050306 576.3044295771131 1258.1750866834523 625.4732465879747C1263.316069561874 674.6420635988362 1278.1925344224642 733.4259936610338 1254.889005687577 768.0309253333966C1231.58547695269 802.6358570057594 1156.91287224517 806.399989197992 1118.3539142741292 833.1028366221512C1079.7949563030886 859.8056840463105 1066.3829881469812 921.1476950268665 1023.535257861333 928.2480098783521C980.6875275756847 935.3483247298378 908.9173841023662 884.6645575809031 861.2675325602399 875.7047257310655 " fill="url(#SvgjsLinearGradient1016)" transform="matrix(-1,1.2246467991473532e-16,-1.2246467991473532e-16,-1,1817.6005859375,1195.927490234375)"/></svg>